<svg width="116" height="40" viewBox="0 0 116 40" fill="none" xmlns="http://www.w3.org/2000/svg">
<path fill-rule="evenodd" clip-rule="evenodd" d="M34.2151 17.8538C33.4643 17.1013 31.1047 17.4238 26.5999 17.6388C27.4579 13.8761 28.1015 10.5434 29.8176 7.96326C37.6474 8.39328 47.1933 9.46834 58.1335 9.46834C79.6923 9.36083 79.9068 1.4054 79.9068 1.4054C70.6827 3.98554 58.1335 3.233 48.5876 2.37296C36.5748 1.19039 24.6692 -1.49725 14.6943 1.08289C3.00321 4.20056 1.93063 12.9085 2.35966 16.6712C7.07899 10.5434 13.4072 8.28578 21.4515 7.85575C22.2023 7.85575 23.0604 7.74825 23.8112 7.74825C22.3096 9.25333 21.237 11.726 20.0571 15.4887C19.8426 16.3487 19.5209 17.1013 19.3063 17.8538C9.3314 18.7138 7.40077 23.3366 7.93705 24.5191C8.5806 25.8092 12.1201 24.0891 16.5177 23.6591C16.8394 23.6591 17.0539 23.5516 17.3757 23.5516C15.6596 28.0668 13.729 31.1845 10.6185 33.1196C5.89916 35.9148 1.07257 34.6247 0 33.8722C0.42903 39.1399 8.25883 41.9351 14.9088 38.2799C20.2717 35.3772 23.2749 28.3894 24.991 23.2291C26.4926 23.2291 27.8869 23.2291 29.3885 23.1216C33.4643 22.9066 35.1805 18.7138 34.2151 17.8538ZM114.873 11.941C114.658 11.8335 114.444 11.8335 114.229 11.8335C114.015 11.8335 113.8 11.941 113.586 12.0485C113.371 12.156 113.264 12.2635 113.157 12.4785C113.049 12.586 112.942 12.801 112.835 13.016C112.728 13.4461 112.728 13.8761 112.942 14.1986C111.441 15.5962 110.046 16.5637 109.295 16.3487C108.33 16.0262 109.081 13.4461 110.046 11.0809C110.475 11.1884 110.904 11.0809 111.226 10.8659C111.548 10.6509 111.87 10.3284 111.977 9.89836C112.084 9.46834 112.084 8.93081 111.87 8.60829C111.655 8.17827 111.333 7.85575 110.904 7.74825C110.69 7.64074 110.475 7.64074 110.261 7.64074C110.046 7.64074 109.832 7.74825 109.617 7.85575C109.403 7.96326 109.188 8.07076 109.081 8.28578C108.974 8.50079 108.866 8.60829 108.759 8.93081C108.545 9.57584 108.759 10.2209 109.188 10.7584C107.901 13.016 106.614 14.9511 105.541 14.6286C104.362 14.3061 104.469 11.941 104.791 9.25333C105.22 9.03832 105.756 8.60829 105.97 7.96326C106.078 7.53323 106.078 6.99571 105.863 6.67319C105.649 6.24317 105.327 5.92065 104.898 5.81314C104.683 5.70564 104.469 5.70564 104.254 5.70564C104.04 5.70564 103.825 5.81314 103.611 5.92065C103.396 6.02815 103.182 6.13566 103.074 6.35067C102.967 6.56568 102.86 6.67319 102.753 6.99571C102.538 7.85575 102.86 8.7158 103.611 9.03832C102.967 11.5109 102.109 13.9836 101.144 13.7686C100.393 13.5536 99.8567 11.8335 99.4277 9.89836C99.6422 9.68335 99.8567 9.36083 99.964 9.14582C100.071 8.8233 100.178 8.60829 100.178 8.28578C100.178 7.96326 100.071 7.64074 99.8567 7.42573C99.6422 7.21072 99.4277 6.99571 99.1059 6.8882C98.8914 6.78069 98.6769 6.78069 98.4624 6.78069C98.2478 6.78069 98.0333 6.8882 97.8188 6.99571C97.6043 7.10321 97.497 7.21072 97.3898 7.42573C97.2825 7.53324 97.1753 7.74825 97.068 7.96326C96.9608 8.17827 96.9608 8.39328 96.9608 8.60829C96.9608 8.8233 97.068 9.03832 97.1753 9.25333C97.3898 9.36083 97.497 9.57584 97.7116 9.68335C97.9261 9.79086 98.1406 9.89836 98.3551 9.89836L98.6769 16.6712L109.724 20.2189L113.8 14.9511C114.015 15.0586 114.229 15.0586 114.444 15.0586C114.658 15.0586 114.873 15.0586 115.087 14.9511C115.302 14.8436 115.516 14.7361 115.624 14.5211C115.731 14.3061 115.838 14.1986 115.945 13.9836C116.16 13.1235 115.731 12.2635 114.873 11.941Z" fill="#0074CA"/>
<path fill-rule="evenodd" clip-rule="evenodd" d="M102.216 30.7545C100.178 34.4097 97.2825 36.2373 95.6737 34.8398C94.1721 33.4422 94.4939 29.4645 96.5317 25.8093C98.5696 22.1541 101.466 20.3265 103.074 21.724C104.683 23.0141 104.254 27.0993 102.216 30.7545ZM99.4277 18.2839C99.4277 18.2839 96.8535 19.2514 95.0301 20.9715C94.3866 21.509 93.8503 22.1541 93.314 22.7991C92.7777 23.4441 92.456 24.0892 92.0269 24.8417C91.4906 25.8093 90.9544 26.8843 90.5253 27.9594C90.5253 27.9594 89.4528 30.217 88.702 31.2921C87.9511 32.3671 86.5568 33.4422 85.9133 33.7647C85.2697 34.0872 84.5189 34.3022 83.8754 34.5172C79.156 35.9148 78.298 32.4746 79.3706 30.9695C79.7996 30.432 82.3738 28.3894 84.0899 26.9918C87.5221 24.1967 89.8818 22.3691 91.4906 20.7565C93.2068 19.0364 92.1342 18.0688 90.7398 17.8538C87.4149 17.3163 85.9133 18.1764 84.9479 19.0364C83.7681 20.004 76.9036 28.3894 76.9036 28.3894C76.9036 28.3894 88.0584 6.56573 89.989 2.80303C91.4907 -0.314643 84.1971 -0.744666 82.1592 3.77058C80.9794 6.35072 72.9351 25.0567 71.9698 27.3143C70.1464 31.5071 70.0392 32.1521 69.1811 32.9046H69.0738C68.2158 33.6572 67.0359 34.3022 66.1779 34.3022C65.6416 34.3022 65.4271 33.9797 65.3198 33.4422C65.2126 32.7971 65.3198 32.0446 65.5343 31.1846C65.6416 30.647 65.8561 30.002 66.0706 29.357C66.2851 28.7119 66.4997 28.0669 66.8214 27.3143C67.0359 26.6693 67.3577 26.0243 67.6795 25.3792L68.4303 23.6591C68.6448 23.1216 68.8593 22.6916 69.0738 22.2616C69.2884 21.8316 69.2883 21.6165 69.3956 21.4015C69.7174 20.3265 69.6101 19.2514 69.2883 18.7139C68.9666 18.0688 68.5375 17.7463 67.7867 17.7463C67.0359 17.7463 66.3924 17.9613 65.7489 18.2839C64.9981 18.7139 64.3545 19.1439 63.711 19.8964C63.1747 20.5415 62.5311 21.294 61.9948 22.0466C61.6731 22.5841 61.244 23.0141 60.815 23.5516C60.386 24.0892 59.9569 24.6267 59.6352 25.0567C59.0989 25.7018 58.5626 26.4543 58.0263 27.0993H57.5973C57.5973 26.9918 57.7045 26.7768 57.8118 26.4543C57.9191 26.1318 58.0263 25.8093 58.2408 25.3792C58.5626 24.4117 58.9916 23.5516 59.3134 22.5841C59.5279 22.1541 59.6352 21.724 59.7424 21.294C59.8497 20.864 59.957 20.649 60.0642 20.434C60.2787 19.5739 60.2787 18.9289 60.0642 18.4989C59.8497 17.9613 59.4207 17.7463 58.5626 17.7463C57.8118 17.7463 57.061 17.9613 56.5247 18.3914C55.9884 18.8214 55.4521 19.4664 55.1304 20.1115C54.5941 21.1865 54.165 22.2616 53.736 23.3366C52.6634 25.9168 51.6981 28.4969 50.8401 31.1846C50.6255 31.7221 50.5183 32.2596 50.3038 32.9046C49.2312 33.4422 48.1586 33.8722 47.0861 34.1947C46.657 34.3022 46.1207 34.4097 45.799 34.0872C45.5844 33.8722 45.5844 33.4422 45.5844 33.1197C45.799 31.3996 46.5498 29.6795 47.1933 28.0669C48.3731 25.3792 49.553 22.5841 50.6255 19.7889C50.7328 19.4664 50.8401 19.0364 50.7328 18.7139C50.5183 18.1764 49.8747 17.9613 49.3385 17.8538C48.0514 17.6388 46.657 17.8538 45.9062 18.8214C45.6917 19.1439 45.4772 19.5739 45.2627 19.8964L41.1869 29.2495C40.3288 31.1846 39.2563 33.3347 37.2184 34.0872C36.8966 34.1947 36.4676 34.3022 36.1458 34.0872C35.7168 33.8722 35.5022 33.3347 35.5022 32.9046C35.5022 32.4746 35.7168 31.9371 35.824 31.5071C37.5401 27.3143 38.72 24.4117 40.4361 20.3265C40.5433 20.1115 40.9724 19.1439 40.9724 18.7139C40.9724 18.6064 40.9724 18.3914 40.8651 18.2839C40.7579 18.1764 40.6506 18.0688 40.5433 17.9613C39.4708 17.4238 38.1837 17.7463 37.2184 18.4989C35.7168 19.5739 34.8587 21.294 34.1079 23.0141C33.2498 24.8417 32.3918 26.6693 31.641 28.6044C30.7829 30.7545 29.8176 32.7971 29.3886 35.1623C29.1741 36.3448 29.1741 37.8499 30.0321 38.71C30.5684 39.2475 31.4265 39.4625 32.1773 39.4625C35.2877 39.57 38.1837 37.9574 40.4361 35.8073C40.5433 36.9899 40.6506 38.2799 41.6159 38.8175C42.2595 39.2475 43.0103 39.2475 43.6538 39.14C45.0482 39.0325 46.4425 38.495 47.8369 37.9574C48.3731 37.7424 48.9094 37.5274 49.4457 37.2049C49.4457 37.4199 49.4457 37.6349 49.553 37.8499C49.6602 38.2799 49.8747 38.6025 50.1965 38.925C50.5183 39.14 50.9473 39.355 51.5909 39.355C52.1272 39.355 52.5562 39.2475 52.9852 39.0325C53.4142 38.8175 53.8433 38.3874 54.2723 37.7424L62.9602 26.1318H63.2819C62.8529 27.2068 62.4239 28.3894 61.9948 29.4645C61.6731 30.432 61.3513 31.3996 61.1368 32.3671C60.6005 34.6247 60.386 36.3448 60.7078 37.5274C60.9223 38.71 61.4586 39.355 62.3166 39.355C63.1747 39.355 63.9255 39.2475 64.7835 39.0325C65.6416 38.8175 66.3924 38.495 67.1432 38.1724C67.6795 37.9574 68.2158 37.6349 68.7521 37.3124C68.7521 37.5274 68.6448 37.8499 68.6448 38.0649C68.6448 38.71 68.7521 38.8175 68.9666 39.14C69.2883 39.4625 69.6101 39.4625 70.2537 39.4625C70.6827 39.4625 70.8972 39.4625 71.3262 39.14C71.7553 38.8175 73.1496 36.7749 74.2222 35.1623C74.4367 34.9473 74.6512 34.6247 74.8657 34.4097C74.4367 36.3448 75.2948 39.0325 77.8689 39.4625C80.4431 39.8925 84.5189 39.2475 89.7745 35.1623C89.8818 35.6998 89.989 36.2373 90.2036 36.7749C90.6326 37.7424 91.1689 38.495 92.0269 39.14C92.885 39.785 93.9576 40 95.3519 40C96.3172 40 97.2826 39.785 98.1406 39.4625C99.1059 39.14 99.964 38.71 100.822 38.1724C101.68 37.6349 102.431 36.8824 103.182 36.1298C104.576 34.6247 105.756 32.9046 106.614 31.077C107.365 29.357 107.687 28.0669 108.116 26.0243C108.33 24.9492 108.437 23.9817 108.33 23.1216C108.33 23.1216 108.223 20.9715 107.901 20.7565C107.472 20.649 99.4277 18.2839 99.4277 18.2839Z" fill="#0074CA"/>
</svg>
